# xmcd
#
# Track frame offsets:
#	150
#	18759
#	30651
#	45103
#	57010
#	75450
#	88541
#	103093
#	116686
#	131366
#	142587
#	155370
#	177191
#	187399
#
# Disc length: 2653
#
# Revision: 1
# Processed by: cddbd v1.5.1PL0 Copyright (c) Steve Scherf et al.
# Submitted via: NeoAudio 9.9.9
# Normalized: r0:TDELIM( - ),TSWAP
#
DISCID=a00a5b0e
DTITLE=get up and dance - christmas special 32
DYEAR=2004
DGENRE=Country
TTITLE0=alabama - the night before christmas
TTITLE1=barry kaye - randalph the redneck reindeer
TTITLE2=t.g. shepped - a december te remember
TTITLE3=leland martin - flags on the christmas  tree
TTITLE4=the tractors - pretty paper
TTITLE5=scooter lee - set the north pole on fire
TTITLE6=asleep at the  wheel - swingin's drummer boy
TTITLE7=brooks and dunn - rockin'little christmas
TTITLE8=charlie daniels band - blue christmas
TTITLE9=tresa street - christmas of love
TTITLE10=asleep at the wheel - jingle bell boogie
TTITLE11=the tractors - boogie woogie santa claus
TTITLE12=alabama - rockináround the christmas tree
TTITLE13=clay walker - feliz navidad
EXTD=YEAR: 2004
EXTT0=
EXTT1=
EXTT2=
EXTT3=
EXTT4=
EXTT5=
EXTT6=
EXTT7=
EXTT8=
EXTT9=
EXTT10=
EXTT11=
EXTT12=
EXTT13=
PLAYORDER=
